<svg width="23" height="23" viewBox="0 0 23 23" fill="none" xmlns="http://www.w3.org/2000/svg">
<path fill-rule="evenodd" clip-rule="evenodd" d="M3.04223 1.39658C1.79468 2.59219 1.00018 3.44298 1 3.58351C0.999765 3.7922 3.31766 6.11144 3.52652 6.11144C3.6284 6.11144 3.813 5.96979 4.15681 5.62774L4.64305 5.14403L5.55341 6.05298C6.0541 6.55291 6.46378 6.98068 6.46378 7.0036C6.46378 7.02651 6.33323 7.21775 6.1736 7.42861C5.38609 8.46905 4.87506 9.71724 4.77224 10.8515L4.73059 11.311L4.31163 11.3281L3.89267 11.3453L3.71564 11.0316C3.4579 10.575 3.14181 10.3811 2.60781 10.3522C2.29384 10.3351 2.13451 10.3552 1.97206 10.4323C0.918687 10.9322 0.914515 12.4151 1.96506 12.9043C2.28885 13.0551 2.6047 13.0792 2.96103 12.9802C3.22812 12.9061 3.73685 12.4272 3.79508 12.1952C3.83321 12.0433 3.84126 12.041 4.28219 12.0578L4.73059 12.0748L4.77395 12.5096C4.88193 13.5928 5.47322 15.0575 6.13835 15.8895C6.31737 16.1134 6.46378 16.3119 6.46378 16.3307C6.46378 16.3495 5.98037 16.8478 5.38949 17.438L4.31527 18.5111L4.06451 18.0076C3.78767 17.4517 3.61823 17.3176 3.38604 17.4707C3.24621 17.5628 1.17608 21.6652 1.17608 21.8502C1.17608 21.914 1.21797 22.008 1.26908 22.0592C1.35122 22.1413 1.62095 22.1504 3.57288 22.1368L5.78366 22.1214L5.87138 21.9651C5.95616 21.814 5.93724 21.765 5.30507 20.4963L4.6511 19.1838L5.81651 18.0142L6.98191 16.8447L7.4262 17.1791C8.46124 17.9581 9.70432 18.459 10.9436 18.5966L11.2815 18.6341L11.2806 19.0558L11.2798 19.4776L10.9849 19.6403C10.0394 20.1617 10.0862 21.5542 11.0651 22.0281C11.3618 22.1717 11.8911 22.1923 12.1793 22.0716C13.2374 21.6282 13.3135 20.1859 12.3088 19.6189L11.9865 19.437V19.036V18.635L12.3831 18.5939C13.5535 18.4726 14.8764 17.9521 15.7982 17.2505C15.9719 17.1182 16.1654 16.9726 16.2279 16.9268C16.333 16.8501 16.3818 16.8836 16.8667 17.3663L17.3917 17.8888V19.9226C17.3917 21.8182 17.399 21.9629 17.4991 22.0536C17.595 22.1403 17.8405 22.1508 19.7863 22.1508C21.6895 22.1508 21.9777 22.1391 22.0583 22.0585C22.1389 21.9779 22.1505 21.6927 22.1497 19.8112C22.1492 18.626 22.1294 17.6272 22.1057 17.5916C21.9841 17.4094 21.7849 17.3919 19.8447 17.3919H17.8836L17.3732 16.885C17.0926 16.6062 16.8629 16.3584 16.8629 16.3345C16.8629 16.3105 16.9721 16.1538 17.1055 15.9862C17.8783 15.0157 18.4502 13.6283 18.5463 12.491L18.5839 12.0454H19.0336H19.4832L19.5554 12.2451C19.651 12.5095 20.0843 12.9021 20.3672 12.9807C21.0903 13.1814 21.7678 12.8479 22.0607 12.1469C22.2483 11.698 22.1418 11.162 21.789 10.7792C21.4817 10.4458 21.1521 10.3204 20.6648 10.3515C20.3516 10.3714 20.2433 10.4089 20.0047 10.5803C19.8225 10.7112 19.6688 10.8866 19.5797 11.0653L19.44 11.3454L19.0181 11.3282L18.5961 11.311L18.557 10.9156C18.4381 9.71272 17.9573 8.50654 17.2074 7.5299L16.8176 7.0221L17.5803 6.25192L18.3429 5.48174L18.7563 5.69377C19.1507 5.89612 19.1967 5.90581 19.7641 5.90581C20.3084 5.90581 20.391 5.89036 20.7406 5.72309C21.3002 5.45524 21.6379 5.1274 21.8996 4.59757C22.1116 4.16851 22.1212 4.12315 22.1212 3.55725C22.1212 3.00204 22.1088 2.94041 21.9196 2.55611C21.1851 1.06439 19.2886 0.730151 18.1149 1.88557C17.3728 2.6161 17.1965 3.70313 17.6689 4.63447L17.837 4.96577L17.0797 5.73631L16.3222 6.50684L15.8435 6.14646C14.8388 5.39026 13.5795 4.88828 12.4245 4.78364L11.9865 4.74393V4.3185C11.9865 3.89543 11.9875 3.89267 12.1743 3.81535C12.6796 3.60601 13.0052 3.11291 13.0052 2.55693C13.0052 1.24576 11.3724 0.703595 10.5647 1.74656C10.0698 2.38555 10.3119 3.38663 11.0527 3.76459L11.2815 3.88127V4.32068V4.76014H11.1129C10.8005 4.76014 9.91042 4.93992 9.46331 5.09327C8.69266 5.35765 7.84175 5.82573 7.27897 6.29487L7.00724 6.52136L6.10392 5.60935C5.60711 5.10778 5.18944 4.68488 5.17581 4.66966C5.16218 4.65445 5.36705 4.42067 5.63114 4.15012C5.89523 3.87956 6.11127 3.60942 6.11127 3.54979C6.11127 3.40725 3.70536 1 3.56295 1C3.50414 1 3.26977 1.17843 3.04223 1.39658ZM2.68895 2.71357C2.24467 3.16743 1.88111 3.55619 1.88111 3.5774C1.88111 3.65971 3.52464 5.25149 3.56818 5.21136C3.59356 5.18797 3.97809 4.80644 4.42273 4.36356L5.2311 3.55831L4.39411 2.7198C3.93373 2.25859 3.5435 1.88287 3.52693 1.88475C3.51036 1.88669 3.13329 2.25965 2.68895 2.71357ZM11.3649 1.96183C11.1339 2.06606 10.9633 2.40853 11.0123 2.66986C11.0319 2.77414 11.1264 2.93465 11.2222 3.02648C11.3612 3.15967 11.4503 3.1934 11.6626 3.1934C11.9596 3.1934 12.1602 3.05239 12.2822 2.75793C12.4891 2.25841 11.8799 1.7297 11.3649 1.96183ZM19.3011 1.95931C18.2634 2.30013 17.8029 3.46266 18.3359 4.39594C18.6567 4.95767 19.2467 5.26735 19.9052 5.2197C20.5336 5.17429 21.0316 4.81607 21.3009 4.21592C21.7698 3.17119 21.0333 1.98504 19.8659 1.90478C19.6846 1.89227 19.4304 1.91683 19.3011 1.95931ZM10.3312 5.58379C8.07083 6.07126 6.19652 7.87894 5.61111 10.136C5.24867 11.5335 5.41417 13.1233 6.05598 14.4095C6.31049 14.9195 6.79361 15.6498 7.01264 15.8556L7.14877 15.9835L7.39324 15.4901C7.78429 14.7009 8.42516 14.1774 9.2672 13.9592C9.76571 13.83 13.5552 13.8244 14.0351 13.9521C14.5611 14.0921 14.9933 14.3392 15.3722 14.7166C15.7095 15.0526 16.0991 15.6827 16.0991 15.892C16.0991 15.9414 16.1231 15.9818 16.1524 15.9818C16.2424 15.9818 16.6837 15.4181 16.9814 14.9227C18.1096 13.0454 18.204 10.8473 17.2398 8.90217C16.3863 7.18038 14.7769 5.95281 12.8555 5.55817C12.2236 5.42839 10.9942 5.44085 10.3312 5.58379ZM10.9452 6.84256C9.77993 7.10829 8.75265 8.13458 8.51734 9.26796C8.41559 9.75825 8.47369 10.7011 8.63097 11.1116C9.01016 12.1009 9.90877 12.8882 10.935 13.1302C12.5522 13.5113 14.2144 12.5627 14.7199 10.9701C15.2634 9.25762 14.3074 7.43736 12.581 6.89761C12.1771 6.77135 11.3758 6.74438 10.9452 6.84256ZM11.0875 7.52714C10.68 7.62302 10.2212 7.88182 9.89608 8.1992C8.90617 9.16568 8.90617 10.8125 9.89608 11.779C11.1371 12.9906 13.1645 12.6309 13.9365 11.0621C14.1226 10.6838 14.1309 10.6378 14.1305 9.99015C14.13 9.34299 14.1214 9.29587 13.9339 8.91128C13.4167 7.85098 12.2083 7.26334 11.0875 7.52714ZM2.17216 11.122C1.83681 11.3862 1.78493 11.8184 2.05255 12.1179C2.20424 12.2877 2.25894 12.3098 2.52738 12.3098C2.79582 12.3098 2.85052 12.2877 3.00222 12.1179C3.26449 11.8245 3.2273 11.402 2.91708 11.1507C2.7702 11.0318 2.30918 11.014 2.17216 11.122ZM20.3338 11.2274C20.1852 11.376 20.153 11.4555 20.153 11.6739C20.153 11.8978 20.1845 11.9712 20.3528 12.1394C20.5772 12.3639 20.8075 12.3987 21.0924 12.2514C21.4917 12.0449 21.5677 11.6011 21.2632 11.2543C21.1019 11.0705 21.0483 11.0466 20.7977 11.0466C20.5599 11.0466 20.4857 11.0755 20.3338 11.2274ZM9.44522 14.6339C8.65512 14.8261 7.94222 15.5841 7.83823 16.3425L7.80168 16.6094L8.173 16.8574C10.0017 18.0785 12.3067 18.2563 14.3072 17.3304C14.4688 17.2556 14.8088 17.0626 15.0629 16.9013L15.5249 16.6083L15.4892 16.348C15.4054 15.7365 14.8665 15.0561 14.2294 14.7574L13.8959 14.6011L11.7809 14.5907C10.6176 14.5849 9.56654 14.6044 9.44522 14.6339ZM18.0967 19.7713V21.4458H19.7712H21.4456V19.7713V18.0969H19.7712H18.0967V19.7713ZM2.82954 19.9746C2.43731 20.7623 2.12557 21.416 2.13685 21.4274C2.14819 21.4387 2.79271 21.4408 3.56912 21.4321L4.98081 21.4164L4.2618 19.9794L3.5428 18.5424L2.82954 19.9746ZM11.3263 20.2452C11.1499 20.3409 10.9877 20.6064 10.9877 20.7995C10.9877 20.9719 11.1387 21.2451 11.2942 21.3541C11.4796 21.484 11.8791 21.4715 12.0588 21.3303C12.29 21.1483 12.3696 20.8982 12.2854 20.6174C12.1656 20.2175 11.706 20.0391 11.3263 20.2452Z" fill="#BDA2F4" stroke="#BDA2F4" stroke-width="0.4"/>
</svg>
