<svg width="16" height="17" viewBox="0 0 16 17" fill="none" xmlns="http://www.w3.org/2000/svg">
<path d="M8.00004 2.50062C7.4696 2.50062 6.9609 2.71134 6.58582 3.08641C6.21075 3.46148 6.00004 3.97019 6.00004 4.50062C6.00004 5.03106 6.21075 5.53976 6.58582 5.91484C6.9609 6.28991 7.4696 6.50062 8.00004 6.50062C8.53047 6.50062 9.03918 6.28991 9.41425 5.91484C9.78932 5.53976 10 5.03106 10 4.50062C10 3.97019 9.78932 3.46148 9.41425 3.08641C9.03918 2.71134 8.53047 2.50062 8.00004 2.50062ZM4.6667 4.50062C4.66683 3.86994 4.84588 3.25223 5.18306 2.71924C5.52024 2.18625 6.00171 1.75985 6.57154 1.48957C7.14138 1.21929 7.7762 1.11622 8.40228 1.19233C9.02836 1.26844 9.62 1.5206 10.1085 1.91953C10.597 2.31846 10.9623 2.84779 11.1619 3.44604C11.3616 4.04429 11.3874 4.6869 11.2365 5.29925C11.0855 5.9116 10.7639 6.46855 10.309 6.90542C9.85413 7.34229 9.28465 7.64115 8.6667 7.76729V11.834H7.33337V7.76729C6.58046 7.6136 5.90377 7.2045 5.41783 6.60923C4.93189 6.01395 4.66655 5.26906 4.6667 4.50062ZM2.07004 7.83396H5.33337V9.16729H3.26337L2.7447 13.834H13.2554L12.7367 9.16729H10.6667V7.83396H13.93L14.7447 15.1673H1.25537L2.07004 7.83396Z" fill="#BDA2F4"/>
</svg>
