<svg width="20" height="20" viewBox="0 0 20 20" fill="none" xmlns="http://www.w3.org/2000/svg">
<path d="M9.99993 7.21045C10.37 7.21045 10.7249 7.35746 10.9866 7.61914C11.2483 7.88082 11.3953 8.23573 11.3953 8.6058C11.3953 8.97587 11.2483 9.33078 10.9866 9.59246C10.7249 9.85414 10.37 10.0011 9.99993 10.0011C9.62986 10.0011 9.27494 9.85414 9.01327 9.59246C8.75159 9.33078 8.60458 8.97587 8.60458 8.6058C8.60458 8.23573 8.75159 7.88082 9.01327 7.61914C9.27494 7.35746 9.62986 7.21045 9.99993 7.21045ZM9.99993 7.90812C9.81489 7.90812 9.63744 7.98163 9.5066 8.11247C9.37576 8.24331 9.30225 8.42076 9.30225 8.6058C9.30225 8.79083 9.37576 8.96829 9.5066 9.09913C9.63744 9.22997 9.81489 9.30347 9.99993 9.30347C10.185 9.30347 10.3624 9.22997 10.4933 9.09913C10.6241 8.96829 10.6976 8.79083 10.6976 8.6058C10.6976 8.42076 10.6241 8.24331 10.4933 8.11247C10.3624 7.98163 10.185 7.90812 9.99993 7.90812ZM9.99993 10.35C10.9313 10.35 12.7906 10.8139 12.7906 11.7453V12.7918H7.20923V11.7453C7.20923 10.8139 9.06853 10.35 9.99993 10.35ZM9.99993 11.0128C8.96388 11.0128 7.87202 11.5221 7.87202 11.7453V12.1291H12.1278V11.7453C12.1278 11.5221 11.036 11.0128 9.99993 11.0128Z" fill="#BDA2F4" stroke="#BDA2F4" stroke-width="0.4"/>
<path d="M1.66699 10.4154C1.66699 12.6255 2.54497 14.7451 4.10777 16.3079C5.67057 17.8707 7.79019 18.7487 10.0003 18.7487M1.66699 10.4154C1.66699 8.20523 2.54497 6.08561 4.10777 4.52281C5.67057 2.96 7.79019 2.08203 10.0003 2.08203M1.66699 10.4154H5.00033M10.0003 18.7487C12.2105 18.7487 14.3301 17.8707 15.8929 16.3079C17.4557 14.7451 18.3337 12.6255 18.3337 10.4154M10.0003 18.7487V15.4154M18.3337 10.4154C18.3337 8.20523 17.4557 6.08561 15.8929 4.52281C14.3301 2.96 12.2105 2.08203 10.0003 2.08203M18.3337 10.4154H15.0003M10.0003 2.08203V5.41536" stroke="#BDA2F4" stroke-width="1.5"/>
</svg>
