<svg width="40" height="40" viewBox="0 0 40 40" fill="none" xmlns="http://www.w3.org/2000/svg">
<rect x="8.28467" y="18.2256" width="23.4308" height="3.55348" fill="#BDA2F4"/>
<path fill-rule="evenodd" clip-rule="evenodd" d="M24.7156 24.3912C26.9718 22.486 29.3437 22.6532 31.7152 22.6532V17.6317C28.9963 17.6317 25.5516 18.8934 22.7894 21.2354C19.9468 23.6456 17.668 27.3386 17.668 32.2529L23.3642 32.2529C22.1575 29.9643 22.4594 26.2965 24.7156 24.3912Z" fill="#BDA2F4"/>
<path fill-rule="evenodd" clip-rule="evenodd" d="M24.7156 15.6088C26.9718 17.514 29.3437 17.3468 31.7152 17.3468V22.3683C28.9963 22.3683 25.5516 21.1066 22.7894 18.7646C19.9468 16.3544 17.668 12.6614 17.668 7.74707L23.3642 7.74707C22.1575 10.0357 22.4594 13.7035 24.7156 15.6088Z" fill="#BDA2F4"/>
</svg>
