<svg width="24" height="25" viewBox="0 0 24 25" fill="none" xmlns="http://www.w3.org/2000/svg">
<g clip-path="url(#clip0_822_8915)">
<mask id="path-1-inside-1_822_8915" fill="white">
<path d="M21.5435 10.5553C21.6069 9.94499 21.6464 9.32785 21.6464 8.70385C21.6464 7.47642 21.4921 6.26956 21.3052 5.09356C21.1745 4.30414 20.7833 3.5812 20.1939 3.03998C19.6045 2.49876 18.8509 2.17042 18.0532 2.10728C15.8932 1.93756 13.6544 1.75928 11.3624 1.75928C9.07037 1.75928 6.83152 1.93585 4.67152 2.10556C3.87359 2.16879 3.11981 2.49738 2.53041 3.03894C1.941 3.5805 1.54991 4.30383 1.41952 5.09356C1.23266 6.26956 1.07666 7.47642 1.07666 8.70556C1.07666 9.93471 1.23266 11.1399 1.41952 12.3159C1.54991 13.1056 1.941 13.8289 2.53041 14.3705C3.11981 14.912 3.87359 15.2406 4.67152 15.3039C6.20409 15.4239 7.77437 15.5473 9.37895 15.609M5.46866 6.51985H6.7698H5.46866ZM10.7127 6.51985H12.0138H10.7127ZM15.9567 6.51985H17.2561H15.9567ZM5.90237 10.8913H14.6418H5.90237ZM22.2087 19.8507C22.2087 19.8976 22.2229 19.9393 22.2515 19.9758L22.8498 20.7301C22.958 20.8652 23.0228 21.0298 23.0356 21.2024C23.0485 21.375 23.0088 21.5474 22.9218 21.697L22.5721 22.3039C22.4861 22.4543 22.3565 22.5751 22.2004 22.6504C22.0443 22.7257 21.8691 22.7519 21.6978 22.7256L20.7447 22.5816C20.6998 22.575 20.654 22.5834 20.6144 22.6056L19.4847 23.257C19.4454 23.2808 19.4152 23.317 19.3989 23.3598L19.0475 24.2547C18.9851 24.4163 18.8753 24.5553 18.7323 24.6532C18.5894 24.7511 18.4202 24.8035 18.2469 24.8033H17.5458C17.3726 24.8035 17.2033 24.7511 17.0604 24.6532C16.9175 24.5553 16.8076 24.4163 16.7452 24.2547L16.3938 23.3581C16.3772 23.3159 16.347 23.2803 16.3081 23.257L15.1784 22.6056C15.1388 22.5834 15.093 22.575 15.0481 22.5816L14.0967 22.7256C13.9254 22.7519 13.7501 22.7257 13.5941 22.6504C13.438 22.5751 13.3084 22.4543 13.2224 22.3039L12.8709 21.697C12.7836 21.5472 12.7437 21.3745 12.7565 21.2015C12.7694 21.0286 12.8344 20.8636 12.9429 20.7284L13.5447 19.9758C13.5723 19.94 13.5874 19.896 13.5875 19.8507V18.5478C13.5874 18.5026 13.5723 18.4586 13.5447 18.4227L12.9447 17.6684C12.8362 17.5335 12.7711 17.369 12.7579 17.1964C12.7448 17.0238 12.7842 16.8513 12.8709 16.7016L13.2207 16.0947C13.3067 15.9443 13.4363 15.8235 13.5924 15.7482C13.7484 15.6729 13.9237 15.6467 14.0949 15.673L15.0464 15.8187C15.0915 15.8248 15.1373 15.8157 15.1767 15.793L16.3081 15.1381C16.347 15.1148 16.3772 15.0792 16.3938 15.037L16.7469 14.1456C16.8093 13.9839 16.9192 13.845 17.0621 13.7471C17.205 13.6491 17.3743 13.5968 17.5475 13.597H18.2504C18.4236 13.5968 18.5929 13.6491 18.7358 13.7471C18.8787 13.845 18.9886 13.9839 19.0509 14.1456L19.4024 15.037C19.4183 15.0805 19.4486 15.1174 19.4881 15.1416L20.6178 15.793C20.6572 15.8157 20.703 15.8248 20.7481 15.8187L21.6995 15.673C21.8708 15.6467 22.046 15.6729 22.2021 15.7482C22.3582 15.8235 22.4878 15.9443 22.5738 16.0947L22.9252 16.7016C23.0126 16.8513 23.0525 17.0241 23.0397 17.197C23.0268 17.37 22.9618 17.5349 22.8532 17.6701L22.2515 18.4244C22.2242 18.4598 22.2092 18.5031 22.2087 18.5478V19.8507Z"/>
</mask>
<path d="M21.3052 5.09356L22.3827 4.92237L22.3815 4.91532L21.3052 5.09356ZM18.0532 2.10728L18.1393 1.01977L18.1387 1.01972L18.0532 2.10728ZM4.67152 2.10556L4.58607 1.01801L4.58535 1.01806L4.67152 2.10556ZM1.41952 5.09356L0.343161 4.91585L0.342124 4.92237L1.41952 5.09356ZM1.41952 12.3159L0.342104 12.487L0.343181 12.4936L1.41952 12.3159ZM4.67152 15.3039L4.58535 16.3914L4.58636 16.3914L4.67152 15.3039ZM22.2515 19.9758L21.3918 20.6475L21.3968 20.6538L22.2515 19.9758ZM22.8498 20.7301L21.9951 21.4081L21.9984 21.4122L22.8498 20.7301ZM22.9218 21.697L21.9788 21.1485L21.9766 21.1523L22.9218 21.697ZM22.5721 22.3039L21.6269 21.7592L21.6251 21.7623L22.5721 22.3039ZM21.6978 22.7256L21.8635 21.6473L21.8608 21.6469L21.6978 22.7256ZM20.7447 22.5816L20.9076 21.5029L20.903 21.5022L20.7447 22.5816ZM20.6144 22.6056L20.0818 21.6535L20.0756 21.657L20.0694 21.6605L20.6144 22.6056ZM19.4847 23.257L18.9397 22.3119L18.9295 22.3178L18.9195 22.3239L19.4847 23.257ZM19.3989 23.3598L20.4144 23.7586L20.4187 23.7475L19.3989 23.3598ZM19.0475 24.2547L18.0321 23.8559L18.0298 23.862L19.0475 24.2547ZM18.2469 24.8033L18.2481 23.7124H18.2469V24.8033ZM17.5458 24.8033V23.7124L17.5447 23.7124L17.5458 24.8033ZM16.7452 24.2547L17.763 23.862L17.7609 23.8566L16.7452 24.2547ZM16.3938 23.3581L17.4095 22.96L17.4089 22.9586L16.3938 23.3581ZM16.3081 23.257L16.8687 22.3211L16.8609 22.3165L16.853 22.3119L16.3081 23.257ZM15.1784 22.6056L15.7233 21.6605L15.7172 21.657L15.7109 21.6535L15.1784 22.6056ZM15.0481 22.5816L14.8897 21.5022L14.8848 21.5029L15.0481 22.5816ZM14.0967 22.7256L13.9334 21.6469L13.9309 21.6473L14.0967 22.7256ZM13.2224 22.3039L14.1694 21.7623L14.1664 21.7572L13.2224 22.3039ZM12.8709 21.697L13.815 21.1503L13.8132 21.1473L12.8709 21.697ZM12.9429 20.7284L13.7936 21.4114L13.795 21.4097L12.9429 20.7284ZM13.5447 19.9758L14.3967 20.6571L14.4026 20.6498L14.4083 20.6423L13.5447 19.9758ZM13.5875 19.8507L14.6784 19.8536V19.8507H13.5875ZM13.5875 18.5478H14.6784L14.6784 18.545L13.5875 18.5478ZM13.5447 18.4227L14.4083 17.7562L14.4034 17.7499L14.3984 17.7436L13.5447 18.4227ZM12.9447 17.6684L13.7984 16.9893L13.7948 16.9848L12.9447 17.6684ZM12.8709 16.7016L13.8149 17.2484L13.8161 17.2463L12.8709 16.7016ZM13.2207 16.0947L14.1659 16.6394L14.1677 16.6362L13.2207 16.0947ZM14.0949 15.673L13.9292 16.7512L13.9298 16.7513L14.0949 15.673ZM15.0464 15.8187L14.8812 16.897L14.891 16.8985L14.9009 16.8999L15.0464 15.8187ZM15.1767 15.793L15.722 16.7378L15.7231 16.7372L15.1767 15.793ZM16.3081 15.1381L16.8546 16.0823L16.8616 16.0782L16.8687 16.074L16.3081 15.1381ZM16.3938 15.037L15.3796 14.6352L15.3787 14.6375L16.3938 15.037ZM16.7469 14.1456L17.7612 14.5474L17.7647 14.5383L16.7469 14.1456ZM17.5475 13.597L17.5464 14.6879H17.5475V13.597ZM18.2504 13.597V14.6879L18.2515 14.6879L18.2504 13.597ZM19.0509 14.1456L18.0332 14.5383L18.0361 14.5457L19.0509 14.1456ZM19.4024 15.037L20.4265 14.6611L20.422 14.649L20.4173 14.6369L19.4024 15.037ZM19.4881 15.1416L18.9185 16.072L18.9307 16.0795L18.9431 16.0866L19.4881 15.1416ZM20.6178 15.793L21.1632 14.8482L21.1627 14.8479L20.6178 15.793ZM20.7481 15.8187L20.8936 16.8999L20.9034 16.8985L20.9132 16.897L20.7481 15.8187ZM21.6995 15.673L21.8647 16.7513L21.8652 16.7512L21.6995 15.673ZM22.5738 16.0947L21.6268 16.6362L21.6298 16.6414L22.5738 16.0947ZM22.9252 16.7016L21.9812 17.2483L21.983 17.2513L22.9252 16.7016ZM22.8532 17.6701L22.0026 16.9871L22.0004 16.9898L22.8532 17.6701ZM22.2515 18.4244L21.3987 17.7441L21.3933 17.7509L21.3879 17.7578L22.2515 18.4244ZM22.2087 18.5478L21.1178 18.5358V18.5478H22.2087ZM21.5435 10.5553L22.6286 10.6681C22.695 10.0292 22.7373 9.37348 22.7373 8.70385H21.6464H20.5555C20.5555 9.28222 20.5189 9.86082 20.4585 10.4425L21.5435 10.5553ZM21.6464 8.70385H22.7373C22.7373 7.38971 22.5722 6.11572 22.3826 4.92237L21.3052 5.09356L20.2278 5.26475C20.4119 6.4234 20.5555 7.56314 20.5555 8.70385H21.6464ZM21.3052 5.09356L22.3815 4.91532C22.2109 3.88553 21.7006 2.94247 20.9317 2.23647L20.1939 3.03998L19.456 3.8435C19.8659 4.21993 20.1381 4.72275 20.229 5.27181L21.3052 5.09356ZM20.1939 3.03998L20.9317 2.23647C20.1629 1.53046 19.1799 1.10213 18.1393 1.01977L18.0532 2.10728L17.9672 3.19478C18.522 3.2387 19.0461 3.46707 19.456 3.8435L20.1939 3.03998ZM18.0532 2.10728L18.1387 1.01972C15.9859 0.850576 13.7043 0.668368 11.3624 0.668368V1.75928V2.85019C13.6044 2.85019 15.8005 3.02455 17.9678 3.19483L18.0532 2.10728ZM11.3624 1.75928V0.668368C9.02069 0.668368 6.73964 0.848796 4.58607 1.01801L4.67152 2.10556L4.75697 3.19312C6.92339 3.0229 9.12006 2.85019 11.3624 2.85019V1.75928ZM4.67152 2.10556L4.58535 1.01806C3.54447 1.10054 2.56118 1.52918 1.79231 2.23563L2.53041 3.03894L3.2685 3.84225C3.67844 3.46558 4.20271 3.23704 4.75768 3.19306L4.67152 2.10556ZM2.53041 3.03894L1.79231 2.23563C1.02344 2.94208 0.513276 3.88565 0.343181 4.91585L1.41952 5.09356L2.49585 5.27128C2.58655 4.722 2.85855 4.21891 3.2685 3.84225L2.53041 3.03894ZM1.41952 5.09356L0.342124 4.92237C0.15271 6.11447 -0.014249 7.38903 -0.014249 8.70556H1.07666H2.16757C2.16757 7.56381 2.31261 6.42466 2.49691 5.26475L1.41952 5.09356ZM1.07666 8.70556H-0.014249C-0.014249 10.0222 0.152732 11.2951 0.342124 12.487L1.41952 12.3159L2.49691 12.1447C2.31259 10.9846 2.16757 9.84724 2.16757 8.70556H1.07666ZM1.41952 12.3159L0.343181 12.4936C0.513276 13.5238 1.02344 14.4673 1.79231 15.1738L2.53041 14.3705L3.2685 13.5672C2.85855 13.1905 2.58654 12.6874 2.49585 12.1381L1.41952 12.3159ZM2.53041 14.3705L1.79231 15.1738C2.56118 15.8802 3.54447 16.3089 4.58535 16.3914L4.67152 15.3039L4.75768 14.2164C4.20271 14.1724 3.67844 13.9438 3.2685 13.5672L2.53041 14.3705ZM4.67152 15.3039L4.58636 16.3914C6.11545 16.5112 7.70724 16.6364 9.33702 16.6991L9.37895 15.609L9.42087 14.5189C7.84151 14.4581 6.29273 14.3365 4.75667 14.2163L4.67152 15.3039ZM5.46866 6.51985V7.61076H6.7698V6.51985V5.42894H5.46866V6.51985ZM10.7127 6.51985V7.61076H12.0138V6.51985V5.42894H10.7127V6.51985ZM15.9567 6.51985V7.61076H17.2561V6.51985V5.42894H15.9567V6.51985ZM5.90237 10.8913V11.9822H14.6418V10.8913V9.80037H5.90237V10.8913ZM22.2087 19.8507H21.1178C21.1178 20.1384 21.2119 20.4171 21.3919 20.6475L22.2515 19.9758L23.1112 19.3042C23.234 19.4615 23.2996 19.6567 23.2996 19.8507H22.2087ZM22.2515 19.9758L21.3968 20.6538L21.9951 21.4081L22.8498 20.7301L23.7045 20.0522L23.1062 19.2979L22.2515 19.9758ZM22.8498 20.7301L21.9984 21.4122C21.9689 21.3754 21.9512 21.3305 21.9477 21.2834L23.0356 21.2024L24.1235 21.1214C24.0943 20.7292 23.9471 20.355 23.7012 20.0481L22.8498 20.7301ZM23.0356 21.2024L21.9477 21.2834C21.9442 21.2364 21.9551 21.1893 21.9788 21.1485L22.9218 21.697L23.8648 22.2455C24.0626 21.9055 24.1527 21.5136 24.1235 21.1214L23.0356 21.2024ZM22.9218 21.697L21.9766 21.1523L21.6269 21.7592L22.5721 22.3039L23.5173 22.8485L23.867 22.2417L22.9218 21.697ZM22.5721 22.3039L21.6251 21.7623C21.6485 21.7213 21.6839 21.6883 21.7264 21.6678L22.2004 22.6504L22.6743 23.633C23.0291 23.4619 23.3236 23.1873 23.5191 22.8454L22.5721 22.3039ZM22.2004 22.6504L21.7264 21.6678C21.769 21.6473 21.8168 21.6401 21.8635 21.6473L21.6978 22.7256L21.5321 23.8038C21.9214 23.8636 22.3196 23.8041 22.6743 23.633L22.2004 22.6504ZM21.6978 22.7256L21.8608 21.6469L20.9076 21.5029L20.7447 22.5816L20.5817 23.6602L21.5348 23.8042L21.6978 22.7256ZM20.7447 22.5816L20.903 21.5022C20.6201 21.4607 20.3314 21.5139 20.0818 21.6535L20.6144 22.6056L21.1469 23.5576C20.9766 23.6529 20.7795 23.6893 20.5863 23.6609L20.7447 22.5816ZM20.6144 22.6056L20.0694 21.6605L18.9397 22.3119L19.4847 23.257L20.0296 24.202L21.1593 23.5506L20.6144 22.6056ZM19.4847 23.257L18.9195 22.3239C18.6722 22.4737 18.482 22.7019 18.3792 22.9722L19.3989 23.3598L20.4187 23.7475C20.3485 23.9321 20.2187 24.0878 20.0498 24.1901L19.4847 23.257ZM19.3989 23.3598L18.3835 22.9611L18.0321 23.8559L19.0475 24.2547L20.0629 24.6535L20.4144 23.7586L19.3989 23.3598ZM19.0475 24.2547L18.0298 23.862C18.0468 23.8179 18.0767 23.78 18.1157 23.7533L18.7323 24.6532L19.349 25.5531C19.6738 25.3306 19.9235 25.0148 20.0653 24.6474L19.0475 24.2547ZM18.7323 24.6532L18.1157 23.7533C18.1547 23.7266 18.2008 23.7123 18.2481 23.7124L18.2469 24.8033L18.2458 25.8942C18.6395 25.8946 19.0242 25.7757 19.349 25.5531L18.7323 24.6532ZM18.2469 24.8033V23.7124H17.5458V24.8033V25.8942H18.2469V24.8033ZM17.5458 24.8033L17.5447 23.7124C17.5919 23.7123 17.6381 23.7266 17.677 23.7533L17.0604 24.6532L16.4438 25.5531C16.7686 25.7757 17.1532 25.8946 17.5469 25.8942L17.5458 24.8033ZM17.0604 24.6532L17.677 23.7533C17.716 23.78 17.746 23.8179 17.763 23.862L16.7452 24.2547L15.7275 24.6474C15.8692 25.0148 16.119 25.3306 16.4438 25.5531L17.0604 24.6532ZM16.7452 24.2547L17.7609 23.8566L17.4095 22.96L16.3938 23.3581L15.3781 23.7562L15.7296 24.6528L16.7452 24.2547ZM16.3938 23.3581L17.4089 22.9586C17.3041 22.6923 17.1142 22.4682 16.8687 22.3211L16.3081 23.257L15.7475 24.1929C15.5799 24.0925 15.4502 23.9394 15.3787 23.7576L16.3938 23.3581ZM16.3081 23.257L16.853 22.3119L15.7233 21.6605L15.1784 22.6056L14.6334 23.5506L15.7631 24.202L16.3081 23.257ZM15.1784 22.6056L15.7109 21.6535C15.4614 21.5139 15.1727 21.4607 14.8897 21.5022L15.0481 22.5816L15.2064 23.6609C15.0133 23.6893 14.8162 23.6529 14.6458 23.5576L15.1784 22.6056ZM15.0481 22.5816L14.8848 21.5029L13.9334 21.6469L14.0967 22.7256L14.2599 23.8042L15.2113 23.6602L15.0481 22.5816ZM14.0967 22.7256L13.9309 21.6473C13.9777 21.6401 14.0255 21.6473 14.068 21.6678L13.5941 22.6504L13.1201 23.633C13.4748 23.8041 13.8731 23.8636 14.2624 23.8038L14.0967 22.7256ZM13.5941 22.6504L14.068 21.6678C14.1106 21.6884 14.1459 21.7213 14.1694 21.7623L13.2224 22.3039L12.2754 22.8454C12.4709 23.1873 12.7654 23.4619 13.1201 23.633L13.5941 22.6504ZM13.2224 22.3039L14.1664 21.7572L13.815 21.1503L12.8709 21.697L11.9269 22.2437L12.2783 22.8505L13.2224 22.3039ZM12.8709 21.697L13.8132 21.1473C13.8371 21.1881 13.8479 21.2352 13.8444 21.2824L12.7565 21.2015L11.6686 21.1207C11.6394 21.5137 11.7301 21.9063 11.9287 22.2467L12.8709 21.697ZM12.7565 21.2015L13.8444 21.2824C13.8409 21.3296 13.8232 21.3746 13.7936 21.4114L12.9429 20.7284L12.0923 20.0454C11.8456 20.3527 11.6978 20.7276 11.6686 21.1207L12.7565 21.2015ZM12.9429 20.7284L13.795 21.4097L14.3967 20.6571L13.5447 19.9758L12.6926 19.2946L12.0909 20.0472L12.9429 20.7284ZM13.5447 19.9758L14.4083 20.6423C14.5827 20.4163 14.6777 20.1391 14.6784 19.8536L13.5875 19.8507L12.4966 19.8478C12.4971 19.6529 12.562 19.4636 12.681 19.3093L13.5447 19.9758ZM13.5875 19.8507H14.6784V18.5478H13.5875H12.4966V19.8507H13.5875ZM13.5875 18.5478L14.6784 18.545C14.6777 18.2595 14.5827 17.9822 14.4083 17.7562L13.5447 18.4227L12.681 19.0892C12.562 18.9349 12.4971 18.7456 12.4966 18.5507L13.5875 18.5478ZM13.5447 18.4227L14.3984 17.7436L13.7984 16.9893L12.9447 17.6684L12.0909 18.3475L12.6909 19.1018L13.5447 18.4227ZM12.9447 17.6684L13.7948 16.9848C13.8244 17.0215 13.8421 17.0664 13.8457 17.1135L12.7579 17.1964L11.6702 17.2793C11.7001 17.6716 11.848 18.0456 12.0946 18.3521L12.9447 17.6684ZM12.7579 17.1964L13.8457 17.1135C13.8493 17.1606 13.8385 17.2076 13.8149 17.2484L12.8709 16.7016L11.927 16.1547C11.7298 16.495 11.6403 16.8871 11.6702 17.2793L12.7579 17.1964ZM12.8709 16.7016L13.8161 17.2463L14.1659 16.6394L13.2207 16.0947L12.2755 15.55L11.9257 16.1569L12.8709 16.7016ZM13.2207 16.0947L14.1677 16.6362C14.1442 16.6773 14.1089 16.7102 14.0663 16.7307L13.5924 15.7482L13.1184 14.7656C12.7637 14.9367 12.4691 15.2113 12.2736 15.5532L13.2207 16.0947ZM13.5924 15.7482L14.0663 16.7307C14.0237 16.7513 13.9759 16.7584 13.9292 16.7512L14.0949 15.673L14.2607 14.5947C13.8714 14.5349 13.4731 14.5945 13.1184 14.7656L13.5924 15.7482ZM14.0949 15.673L13.9298 16.7513L14.8812 16.897L15.0464 15.8187L15.2115 14.7404L14.2601 14.5947L14.0949 15.673ZM15.0464 15.8187L14.9009 16.8999C15.185 16.9381 15.4738 16.8811 15.722 16.7378L15.1767 15.793L14.6313 14.8482C14.8008 14.7504 14.9979 14.7114 15.1919 14.7375L15.0464 15.8187ZM15.1767 15.793L15.7231 16.7372L16.8546 16.0823L16.3081 15.1381L15.7616 14.194L14.6302 14.8488L15.1767 15.793ZM16.3081 15.1381L16.8687 16.074C17.1142 15.9269 17.3041 15.7028 17.4089 15.4365L16.3938 15.037L15.3787 14.6375C15.4502 14.4557 15.5799 14.3027 15.7475 14.2023L16.3081 15.1381ZM16.3938 15.037L17.408 15.4388L17.7612 14.5474L16.7469 14.1456L15.7327 13.7438L15.3796 14.6352L16.3938 15.037ZM16.7469 14.1456L17.7647 14.5383C17.7477 14.5824 17.7177 14.6203 17.6788 14.647L17.0621 13.7471L16.4455 12.8472C16.1207 13.0697 15.8709 13.3855 15.7292 13.7528L16.7469 14.1456ZM17.0621 13.7471L17.6788 14.647C17.6398 14.6737 17.5936 14.688 17.5464 14.6879L17.5475 13.597L17.5487 12.5061C17.1549 12.5057 16.7703 12.6246 16.4455 12.8472L17.0621 13.7471ZM17.5475 13.597V14.6879H18.2504V13.597V12.5061H17.5475V13.597ZM18.2504 13.597L18.2515 14.6879C18.2043 14.688 18.1581 14.6737 18.1191 14.647L18.7358 13.7471L19.3524 12.8472C19.0276 12.6246 18.643 12.5057 18.2492 12.5061L18.2504 13.597ZM18.7358 13.7471L18.1191 14.647C18.0802 14.6203 18.0502 14.5824 18.0332 14.5383L19.0509 14.1456L20.0687 13.7528C19.927 13.3855 19.6772 13.0697 19.3524 12.8472L18.7358 13.7471ZM19.0509 14.1456L18.0361 14.5457L18.3875 15.4371L19.4024 15.037L20.4173 14.6369L20.0658 13.7455L19.0509 14.1456ZM19.4024 15.037L18.3783 15.4129C18.4789 15.6872 18.6693 15.9194 18.9185 16.072L19.4881 15.1416L20.0577 14.2111C20.2278 14.3153 20.3578 14.4739 20.4265 14.6611L19.4024 15.037ZM19.4881 15.1416L18.9431 16.0866L20.0729 16.738L20.6178 15.793L21.1627 14.8479L20.033 14.1965L19.4881 15.1416ZM20.6178 15.793L20.0724 16.7378C20.3207 16.8811 20.6095 16.9381 20.8936 16.8999L20.7481 15.8187L20.6026 14.7375C20.7965 14.7114 20.9937 14.7504 21.1632 14.8482L20.6178 15.793ZM20.7481 15.8187L20.9132 16.897L21.8647 16.7513L21.6995 15.673L21.5344 14.5947L20.5829 14.7404L20.7481 15.8187ZM21.6995 15.673L21.8652 16.7512C21.8185 16.7584 21.7707 16.7513 21.7282 16.7307L22.2021 15.7482L22.6761 14.7656C22.3213 14.5945 21.9231 14.5349 21.5338 14.5947L21.6995 15.673ZM22.2021 15.7482L21.7282 16.7307C21.6856 16.7102 21.6503 16.6773 21.6268 16.6362L22.5738 16.0947L23.5208 15.5532C23.3253 15.2113 23.0308 14.9367 22.6761 14.7656L22.2021 15.7482ZM22.5738 16.0947L21.6298 16.6414L21.9812 17.2483L22.9252 16.7016L23.8693 16.1549L23.5178 15.548L22.5738 16.0947ZM22.9252 16.7016L21.983 17.2513C21.9591 17.2104 21.9482 17.1633 21.9517 17.1162L23.0397 17.197L24.1276 17.2779C24.1568 16.8849 24.0661 16.4923 23.8675 16.1518L22.9252 16.7016ZM23.0397 17.197L21.9517 17.1162C21.9553 17.069 21.973 17.024 22.0026 16.9871L22.8532 17.6701L23.7039 18.3531C23.9506 18.0458 24.0983 17.6709 24.1276 17.2779L23.0397 17.197ZM22.8532 17.6701L22.0004 16.9898L21.3987 17.7441L22.2515 18.4244L23.1043 19.1047L23.706 18.3504L22.8532 17.6701ZM22.2515 18.4244L21.3879 17.7578C21.2157 17.9809 21.1209 18.254 21.1178 18.5358L22.2087 18.5478L23.2995 18.5599C23.2974 18.7522 23.2326 18.9387 23.1151 19.091L22.2515 18.4244ZM22.2087 18.5478H21.1178V19.8507H22.2087H23.2996V18.5478H22.2087Z" fill="#BDA2F4" mask="url(#path-1-inside-1_822_8915)"/>
<mask id="path-3-inside-2_822_8915" fill="white">
<path d="M17.897 18.3421C17.687 18.337 17.4814 18.4035 17.3142 18.5307C16.9747 18.8135 16.9542 19.4581 17.2353 19.789C17.3199 19.8785 17.4228 19.9487 17.537 19.9948C17.6512 20.041 17.774 20.062 17.897 20.0564M17.897 18.3421C18.1084 18.3367 18.3154 18.4038 18.4833 18.5324C18.8193 18.8135 18.8416 19.4581 18.5604 19.789C18.4756 19.8787 18.3725 19.949 18.258 19.9952C18.1435 20.0413 18.0203 20.0622 17.897 20.0564"/>
</mask>
<path d="M17.897 18.3421L17.8705 19.4327L17.8977 19.4333L17.9249 19.4327L17.897 18.3421ZM17.3142 18.5307L16.6538 17.6623L16.6345 17.677L16.6158 17.6926L17.3142 18.5307ZM17.2353 19.789L16.404 20.4954L16.4227 20.5174L16.4426 20.5384L17.2353 19.789ZM17.897 20.0564L17.9485 18.9667L17.8981 18.9643L17.8476 18.9666L17.897 20.0564ZM18.4833 18.5324L19.1834 17.6957L19.1652 17.6805L19.1463 17.6661L18.4833 18.5324ZM18.5604 19.789L19.3533 20.5383L19.3731 20.5173L19.3918 20.4954L18.5604 19.789ZM17.897 18.3421L17.9236 17.2515C17.466 17.2404 17.0182 17.3852 16.6538 17.6623L17.3142 18.5307L17.9745 19.399C17.9446 19.4217 17.908 19.4336 17.8705 19.4327L17.897 18.3421ZM17.3142 18.5307L16.6158 17.6926C16.1462 18.0839 15.9757 18.6422 15.9526 19.0849C15.9294 19.5286 16.0412 20.0684 16.404 20.4954L17.2353 19.789L18.0666 19.0826C18.1123 19.1363 18.126 19.1782 18.129 19.1887C18.1324 19.2002 18.1313 19.2022 18.1314 19.1987C18.1316 19.195 18.1321 19.2058 18.1214 19.2307C18.1106 19.256 18.0807 19.312 18.0125 19.3687L17.3142 18.5307ZM17.2353 19.789L16.4426 20.5384C16.6349 20.7418 16.8687 20.9014 17.1282 21.0063L17.537 19.9948L17.9458 18.9834C17.9769 18.996 18.005 19.0151 18.0281 19.0395L17.2353 19.789ZM17.537 19.9948L17.1282 21.0063C17.3878 21.1111 17.6668 21.1589 17.9465 21.1462L17.897 20.0564L17.8476 18.9666C17.8811 18.9651 17.9146 18.9708 17.9458 18.9834L17.537 19.9948ZM17.897 18.3421L17.9249 19.4327C17.8872 19.4336 17.8503 19.4216 17.8203 19.3987L18.4833 18.5324L19.1463 17.6661C18.7804 17.3861 18.3297 17.2398 17.8691 17.2515L17.897 18.3421ZM18.4833 18.5324L17.7832 19.369C17.714 19.3111 17.6841 19.2544 17.6736 19.2296C17.6631 19.2051 17.6637 19.1948 17.6639 19.199C17.6641 19.2029 17.6629 19.2012 17.6663 19.1896C17.6693 19.179 17.6831 19.1367 17.7291 19.0826L18.5604 19.789L19.3918 20.4954C19.7553 20.0676 19.8659 19.5272 19.8427 19.0851C19.8197 18.6447 19.6509 18.0869 19.1834 17.6957L18.4833 18.5324ZM18.5604 19.789L17.7676 19.0396C17.7907 19.0152 17.8189 18.996 17.8501 18.9834L18.258 19.9952L18.6658 21.007C18.9261 20.9021 19.1606 20.7422 19.3533 20.5383L18.5604 19.789ZM18.258 19.9952L17.8501 18.9834C17.8813 18.9708 17.9149 18.9651 17.9485 18.9667L17.897 20.0564L17.8455 21.1461C18.1258 21.1593 18.4056 21.1119 18.6658 21.007L18.258 19.9952Z" fill="#BDA2F4" mask="url(#path-3-inside-2_822_8915)"/>
</g>
<defs>
<clipPath id="clip0_822_8915">
<rect width="24" height="24" fill="white" transform="translate(0 0.730469)"/>
</clipPath>
</defs>
</svg>
