<svg width="24" height="24" viewBox="0 0 24 24" fill="none" xmlns="http://www.w3.org/2000/svg">
<path d="M21.5983 10.9616C21.5863 11.5592 21.0703 11.9984 20.4739 11.9984H13.1995C12.8812 11.9984 12.576 11.872 12.3509 11.647C12.1259 11.4219 11.9995 11.1167 11.9995 10.7984V3.52404C11.9995 2.92644 12.4387 2.41164 13.0363 2.39964L13.1995 2.39844C14.3163 2.39839 15.422 2.62106 16.4518 3.05344C17.4816 3.48582 18.4148 4.11922 19.1968 4.91659C19.9789 5.71395 20.5941 6.65927 21.0064 7.69723C21.4188 8.7352 21.62 9.84498 21.5983 10.9616ZM13.1995 3.59844V10.7984H20.3995C20.3995 8.88888 19.6409 7.05753 18.2906 5.70727C16.9404 4.35701 15.109 3.59844 13.1995 3.59844ZM10.7995 5.42124C10.7995 5.33856 10.7825 5.25675 10.7495 5.18096C10.7165 5.10517 10.6681 5.03702 10.6075 4.98079C10.5469 4.92457 10.4753 4.88148 10.3972 4.85423C10.3192 4.82698 10.2363 4.81615 10.1539 4.82244C8.55235 4.94607 7.01986 5.52629 5.73805 6.49434C4.45623 7.46238 3.47886 8.77765 2.92176 10.2842C2.36467 11.7908 2.25123 13.4256 2.59489 14.9946C2.93854 16.5637 3.72488 18.0014 4.8607 19.1372C5.99651 20.273 7.43417 21.0594 9.00327 21.403C10.5724 21.7467 12.2071 21.6332 13.7137 21.0762C15.2203 20.5191 16.5355 19.5417 17.5036 18.2599C18.4716 16.9781 19.0518 15.4456 19.1755 13.844C19.1818 13.7616 19.1709 13.6787 19.1437 13.6007C19.1164 13.5226 19.0733 13.451 19.0171 13.3904C18.9609 13.3298 18.8927 13.2815 18.817 13.2484C18.7412 13.2154 18.6594 13.1984 18.5767 13.1984H12.5995C12.1221 13.1984 11.6642 13.0088 11.3267 12.6712C10.9891 12.3337 10.7995 11.8758 10.7995 11.3984V5.42124ZM3.59948 13.1984C3.59921 11.4967 4.20169 9.84995 5.30003 8.55018C6.39837 7.2504 7.92158 6.38165 9.59948 6.09804V11.3984C9.59948 11.7924 9.67707 12.1825 9.82784 12.5465C9.9786 12.9105 10.1996 13.2412 10.4782 13.5198C11.0408 14.0824 11.8038 14.3984 12.5995 14.3984H17.8999C17.5942 16.1745 16.6338 17.7715 15.2082 18.874C13.7826 19.9766 11.9955 20.5046 10.1996 20.3539C8.40369 20.2032 6.72956 19.3847 5.50766 18.06C4.28576 16.7353 3.6049 15.0006 3.59948 13.1984Z" fill="#BDA2F4"/>
</svg>
