<svg width="24" height="25" viewBox="0 0 24 25" fill="none" xmlns="http://www.w3.org/2000/svg">
<path d="M9 5.21387H15C15.2034 5.21387 15.3981 5.29463 15.542 5.43848C15.6858 5.58233 15.7666 5.77704 15.7666 5.98047V13.4639H20.25C20.4534 13.4639 20.6481 13.5446 20.792 13.6885C20.9358 13.8323 21.0166 14.027 21.0166 14.2305V20.2139H22.5C22.5045 20.2139 22.5085 20.2156 22.5117 20.2188C22.5149 20.2219 22.5166 20.2259 22.5166 20.2305C22.5166 20.235 22.5149 20.239 22.5117 20.2422C22.5085 20.2454 22.5045 20.2471 22.5 20.2471H1.5C1.49548 20.2471 1.49148 20.2454 1.48828 20.2422C1.48509 20.239 1.4834 20.235 1.4834 20.2305C1.4834 20.2259 1.48509 20.2219 1.48828 20.2188C1.49148 20.2156 1.49548 20.2139 1.5 20.2139H2.9834V10.4805C2.9834 10.277 3.06416 10.0823 3.20801 9.93848C3.35186 9.79463 3.54657 9.71387 3.75 9.71387H8.2334V5.98047C8.2334 5.77704 8.31416 5.58233 8.45801 5.43848C8.60186 5.29463 8.79657 5.21387 9 5.21387ZM3.75 9.74707C3.55561 9.74707 3.3689 9.82446 3.23145 9.96191C3.09399 10.0994 3.0166 10.2861 3.0166 10.4805V20.2139H8.2334V9.74707H3.75ZM9 5.24707C8.80561 5.24707 8.6189 5.32446 8.48145 5.46191C8.34399 5.59937 8.2666 5.78608 8.2666 5.98047V20.2139H15.7334V5.98047C15.7334 5.8347 15.6891 5.69374 15.6094 5.57422L15.5186 5.46191L15.4062 5.37109C15.2867 5.29142 15.1458 5.24707 15 5.24707H9ZM15.7666 20.2139H20.9834V14.2305C20.9834 14.0847 20.9391 13.9437 20.8594 13.8242L20.7686 13.7119L20.6562 13.6211C20.5367 13.5414 20.3958 13.4971 20.25 13.4971H15.7666V20.2139ZM12.3779 9.71387C12.3804 9.7143 12.3827 9.71534 12.3848 9.7168C12.387 9.71838 12.3894 9.72026 12.3906 9.72266C12.3918 9.72501 12.3916 9.72783 12.3916 9.73047V13.4805C12.3916 13.485 12.3899 13.489 12.3867 13.4922C12.3835 13.4954 12.3795 13.4971 12.375 13.4971C12.3705 13.4971 12.3665 13.4954 12.3633 13.4922C12.3601 13.489 12.3584 13.485 12.3584 13.4805V9.75293L11.6396 9.99316L11.2549 10.1201C11.2506 10.1215 11.2462 10.1221 11.2422 10.1201L11.2344 10.1104C11.2331 10.1062 11.2334 10.1016 11.2354 10.0977C11.2373 10.0939 11.2402 10.0903 11.2441 10.0889L12.3691 9.71484C12.3717 9.71399 12.3753 9.71346 12.3779 9.71387Z" stroke="#BDA2F4" stroke-width="1.09091"/>
</svg>
