<svg width="24" height="24" viewBox="0 0 24 24" fill="none" xmlns="http://www.w3.org/2000/svg">
<path fill-rule="evenodd" clip-rule="evenodd" d="M9.0002 6.25C8.63906 6.25 8.28146 6.32113 7.94782 6.45933C7.61417 6.59753 7.31102 6.8001 7.05565 7.05546C6.80029 7.31082 6.59773 7.61398 6.45953 7.94762C6.32133 8.28127 6.2502 8.63886 6.2502 9C6.2502 9.36114 6.32133 9.71873 6.45953 10.0524C6.59773 10.386 6.80029 10.6892 7.05565 10.9445C7.31102 11.1999 7.61417 11.4025 7.94782 11.5407C8.28146 11.6789 8.63906 11.75 9.0002 11.75C9.72954 11.75 10.429 11.4603 10.9447 10.9445C11.4605 10.4288 11.7502 9.72935 11.7502 9C11.7502 8.27065 11.4605 7.57118 10.9447 7.05546C10.429 6.53973 9.72954 6.25 9.0002 6.25ZM7.7502 9C7.7502 8.66848 7.88189 8.35054 8.11631 8.11612C8.35074 7.8817 8.66868 7.75 9.0002 7.75C9.33172 7.75 9.64966 7.8817 9.88408 8.11612C10.1185 8.35054 10.2502 8.66848 10.2502 9C10.2502 9.33152 10.1185 9.64946 9.88408 9.88388C9.64966 10.1183 9.33172 10.25 9.0002 10.25C8.66868 10.25 8.35074 10.1183 8.11631 9.88388C7.88189 9.64946 7.7502 9.33152 7.7502 9ZM9.0002 12.25C7.8042 12.25 6.6852 12.49 5.8362 12.915C5.0332 13.317 4.2502 14.011 4.2502 15V15.063C4.2482 15.573 4.2462 16.433 5.0602 17.022C5.4382 17.295 5.9372 17.47 6.5552 17.581C7.1782 17.693 7.9772 17.75 9.0002 17.75C10.0232 17.75 10.8222 17.693 11.4452 17.581C12.0632 17.47 12.5622 17.295 12.9402 17.021C13.7542 16.432 13.7522 15.573 13.7502 15.062V15C13.7502 14.01 12.9672 13.317 12.1642 12.915C11.3152 12.491 10.1962 12.25 9.0002 12.25ZM5.7502 15C5.7502 14.885 5.8632 14.579 6.5072 14.257C7.1072 13.957 7.9872 13.75 9.0002 13.75C10.0132 13.75 10.8942 13.957 11.4932 14.257C12.1372 14.579 12.2502 14.885 12.2502 15C12.2502 15.604 12.2112 15.697 12.0602 15.807C11.9382 15.895 11.6872 16.013 11.1802 16.105C10.6782 16.195 9.9772 16.25 9.0002 16.25C8.0232 16.25 7.3222 16.195 6.8202 16.105C6.3132 16.013 6.0622 15.895 5.9402 15.807C5.7882 15.697 5.7502 15.604 5.7502 15Z" fill="#BDA2F4"/>
<path d="M19 12.75C19.1989 12.75 19.3897 12.671 19.5303 12.5303C19.671 12.3897 19.75 12.1989 19.75 12C19.75 11.8011 19.671 11.6103 19.5303 11.4697C19.3897 11.329 19.1989 11.25 19 11.25H15C14.8011 11.25 14.6103 11.329 14.4697 11.4697C14.329 11.6103 14.25 11.8011 14.25 12C14.25 12.1989 14.329 12.3897 14.4697 12.5303C14.6103 12.671 14.8011 12.75 15 12.75H19ZM19.75 9C19.75 9.19891 19.671 9.38968 19.5303 9.53033C19.3897 9.67098 19.1989 9.75 19 9.75H14C13.8011 9.75 13.6103 9.67098 13.4697 9.53033C13.329 9.38968 13.25 9.19891 13.25 9C13.25 8.80109 13.329 8.61032 13.4697 8.46967C13.6103 8.32902 13.8011 8.25 14 8.25H19C19.1989 8.25 19.3897 8.32902 19.5303 8.46967C19.671 8.61032 19.75 8.80109 19.75 9ZM19 15.75C19.1989 15.75 19.3897 15.671 19.5303 15.5303C19.671 15.3897 19.75 15.1989 19.75 15C19.75 14.8011 19.671 14.6103 19.5303 14.4697C19.3897 14.329 19.1989 14.25 19 14.25H16C15.8011 14.25 15.6103 14.329 15.4697 14.4697C15.329 14.6103 15.25 14.8011 15.25 15C15.25 15.1989 15.329 15.3897 15.4697 15.5303C15.6103 15.671 15.8011 15.75 16 15.75H19Z" fill="#BDA2F4"/>
<path fill-rule="evenodd" clip-rule="evenodd" d="M9.94398 3.25H14.056C15.894 3.25 17.35 3.25 18.489 3.403C19.661 3.561 20.61 3.893 21.359 4.641C22.107 5.39 22.439 6.339 22.597 7.511C22.75 8.651 22.75 10.106 22.75 11.944V12.056C22.75 13.894 22.75 15.35 22.597 16.489C22.439 17.661 22.107 18.61 21.359 19.359C20.61 20.107 19.661 20.439 18.489 20.597C17.349 20.75 15.894 20.75 14.056 20.75H9.94498C8.10698 20.75 6.65098 20.75 5.51198 20.597C4.33998 20.439 3.39098 20.107 2.64198 19.359C1.89398 18.61 1.56198 17.661 1.40398 16.489C1.25098 15.349 1.25098 13.894 1.25098 12.056V11.944C1.25098 10.106 1.25098 8.65 1.40398 7.511C1.56198 6.339 1.89398 5.39 2.64198 4.641C3.39098 3.893 4.33998 3.561 5.51198 3.403C6.65198 3.25 8.10598 3.25 9.94398 3.25ZM5.70998 4.89C4.70398 5.025 4.12398 5.279 3.69998 5.702C3.27798 6.125 3.02398 6.705 2.88898 7.711C2.75098 8.739 2.74898 10.093 2.74898 12C2.74898 13.907 2.75098 15.262 2.88898 16.29C3.02398 17.295 3.27798 17.875 3.70098 18.298C4.12398 18.721 4.70398 18.975 5.70998 19.11C6.73798 19.248 8.09198 19.25 9.99898 19.25H13.999C15.906 19.25 17.261 19.248 18.289 19.11C19.294 18.975 19.874 18.721 20.297 18.298C20.72 17.875 20.974 17.295 21.109 16.289C21.247 15.261 21.249 13.907 21.249 12C21.249 10.093 21.247 8.739 21.109 7.71C20.974 6.705 20.72 6.125 20.297 5.702C19.874 5.279 19.294 5.025 18.288 4.89C17.261 4.752 15.906 4.75 13.999 4.75H9.99898C8.09198 4.75 6.73898 4.752 5.70998 4.89Z" fill="#BDA2F4"/>
</svg>
